<svg xmlns="http://www.w3.org/2000/svg" viewBox="0 0 319.59 82.14"><defs><style>.cls-1{fill:#000119;}</style></defs><title>DY-Light BG</title><g id="Layer_2" data-name="Layer 2"><g id="Layer_1-2" data-name="Layer 1"><path class="cls-1" d="M42.72,31.54A1.78,1.78,0,1,0,45,32.69a1.77,1.77,0,0,0-2.24-1.15"/><path class="cls-1" d="M41.07,0A41.07,41.07,0,1,0,82.14,41.07,41.07,41.07,0,0,0,41.07,0M64.88,16.24a1.72,1.72,0,0,1-.44.73c-.75.87-8.91,10-11.95,13.06,1.32,3.41,1.32,9.23.85,14.88-.66,8-1.71,11.16-6,13.6S31.1,61.28,25.16,59.82s-6.68-7.41-7.25-7.66c-2.32-1-2-4.65-2-4.65,1.63-.08,3.26,2,3.26,2a7.92,7.92,0,0,1,2.61-2c.89,3.18-1,4.24-.82,4.65.47,1.17,3,4,7,2s4.15-7.57,4.4-14.42,2-12.3,7.9-13.6a14.25,14.25,0,0,1,9.25.83c4-3,13.28-9.57,14.1-10.14a4.59,4.59,0,0,1,.86-.51h.43a.07.07,0,0,1,0,0Z"/><path class="cls-1" d="M38,46.35c-1.3,1.84-1.69,3.55-2.53,5.54-.67,1.61-1.9,2.36-2.79,3.69C32,56.71,34.37,57.11,35,57.13a6,6,0,0,0,4.73-2.24c1.41-1.9,1.56-3.78,2.54-5.81.53-1.08,2.13-3.16,2.22-4.16.18-1.84-4.58-1.29-6.5,1.43"/><path class="cls-1" d="M102.3,27.41h9.64c8.16,0,13.35,5.66,13.35,13.66s-5.19,13.66-13.35,13.66H102.3Zm3.46,3.29V51.44h6.14c6.11,0,9.81-4.38,9.81-10.37S118,30.7,111.9,30.7Z"/><path class="cls-1" d="M145,27A13.78,13.78,0,0,1,159,41.07a14.07,14.07,0,1,1-28.13,0A13.78,13.78,0,0,1,145,27m0,24.71a10.39,10.39,0,0,0,10.49-10.65,10.47,10.47,0,1,0-20.94,0A10.37,10.37,0,0,0,145,51.72"/><path class="cls-1" d="M185.81,53.25a14.3,14.3,0,0,1-7.2,1.89,13.78,13.78,0,0,1-14.06-14.07A13.78,13.78,0,0,1,178.61,27a14.3,14.3,0,0,1,7.2,1.88V33a11.07,11.07,0,0,0-7.2-2.53,10.4,10.4,0,0,0-10.45,10.65,10.35,10.35,0,0,0,10.45,10.65,11.12,11.12,0,0,0,7.2-2.49Z"/><polygon class="cls-1" points="194.14 27.41 197.59 27.41 197.59 40.79 207.8 27.41 211.94 27.41 203.5 38.58 212.34 54.73 208.24 54.73 201.09 41.47 197.59 45.85 197.59 54.73 194.14 54.73 194.14 27.41"/><polygon class="cls-1" points="226.27 42.64 217.23 27.41 221.16 27.41 228 39.18 234.87 27.41 238.85 27.41 229.72 42.68 229.72 54.73 226.27 54.73 226.27 42.64"/><path class="cls-1" d="M257.45,47.1h-11l-2.78,7.64h-3.89L250,27.41h3.9L264.2,54.74h-3.9Zm-9.89-3.34h8.76L251.94,32Z"/><path class="cls-1" d="M270.75,27.41h8.07c5.11,0,8.6,2.85,8.6,7.67a6.86,6.86,0,0,1-5.62,7c3.25,1.52,6.07,6.18,7.07,12.65h-3.58c-1.24-6.79-4.66-11.41-8.24-11.41H274.2V54.73h-3.45Zm8.07,3.29H274.2V40h4.62c2.86,0,5-1.65,5-4.63s-2.17-4.7-5-4.7"/><path class="cls-1" d="M296.61,27.41h9.64c8.16,0,13.34,5.66,13.34,13.66s-5.18,13.66-13.34,13.66h-9.64Zm3.45,3.29V51.44h6.15c6.11,0,9.81-4.38,9.81-10.37s-3.7-10.37-9.81-10.37Z"/></g></g></svg>